/vscmnt/brussel_pixiu_data/_data_brussel/112/vsc11236/PredSimResults/SUBJ06opt3D/trackIG/worker_09.mot
version=1
nRows=7
nColumns=50
inDegrees=yes
endheader
                time	         pelvis_tilt	         pelvis_list	     pelvis_rotation	           pelvis_tx	           pelvis_ty	           pelvis_tz	       hip_flexion_r	     hip_adduction_r	      hip_rotation_r	        knee_angle_r	       ankle_angle_r	         mtp_angle_r	       hip_flexion_l	     hip_adduction_l	      hip_rotation_l	        knee_angle_l	       ankle_angle_l	         mtp_angle_l	    lumbar_extension	      lumbar_bending	     lumbar_rotation	 ercspn_r/activation	 intobl_r/activation	 extobl_r/activation	    abd_r/activation	    add_r/activation	hamstrings_r/activation	bifemsh_r/activation	glut_max_r/activation	iliopsoas_r/activation	rect_fem_r/activation	  vasti_r/activation	gastroc_r/activation	 soleus_r/activation	tib_ant_r/activation	 ercspn_l/activation	 intobl_l/activation	 extobl_l/activation	    abd_l/activation	    add_l/activation	hamstrings_l/activation	bifemsh_l/activation	glut_max_l/activation	iliopsoas_l/activation	rect_fem_l/activation	  vasti_l/activation	gastroc_l/activation	 soleus_l/activation	tib_ant_l/activation	
          1.64240715	         -7.17891945	          1.45921949	         -6.41584470	          2.29937001	          0.91921348	          0.01021342	        -12.20707035	         -1.27812253	         -3.21494804	        -10.13416990	          7.16390994	         36.40368877	         34.47869773	         -1.13170414	         -8.71989838	         -7.14117894	          1.42206489	          0.26161043	         -6.42249668	         -0.78288984	          8.77042207	          0.19412298	          0.00999999	          0.00999999	          0.06244839	          0.00999999	          0.01532148	          0.26407721	          0.01653452	          0.76648023	          0.01182489	          0.00999999	          0.24455784	          0.38570341	          0.02733907	          0.19220672	          0.14915826	          0.00999999	          0.00999999	          0.38785757	          0.15604928	          0.18850102	          0.03907388	          0.14613605	          0.00999999	          0.00999999	          0.01653452	          0.01398280	          0.58786806	
          1.65335653	         -7.20871877	          1.49913242	         -6.47396731	          2.31770481	          0.91738909	          0.00980050	        -12.53830667	         -1.50880499	         -3.56526501	        -11.38461886	          5.87133343	         38.59583301	         34.68328393	         -1.01312514	         -8.43714104	         -9.43949466	          1.09087230	          0.22078932	         -6.13671281	         -1.17134453	          9.20311372	          0.21206313	          0.00999999	          0.00999999	          0.05281094	          0.01182489	          0.02748609	          0.22647871	          0.01398280	          0.71335956	          0.00999999	          0.00999999	          0.20681605	          0.35367583	          0.02311992	          0.16254410	          0.12613917	          0.00999999	          0.01708366	          0.32800081	          0.14510670	          0.15941029	          0.15931512	          0.12358336	          0.00999999	          0.00999999	          0.01398281	          0.01182489	          0.64763260	
          1.66430591	         -7.21577899	          1.58200518	         -6.49778545	          2.33634038	          0.91582311	          0.00927850	        -12.68092039	         -1.80878090	         -3.93831312	        -13.01468850	          4.43157644	         40.78390043	         34.71135982	         -0.88651226	         -8.18895444	        -11.51877291	          0.76684394	          0.20345209	         -5.83670482	         -1.60170675	          9.58074085	          0.21433421	          0.00999999	          0.00999999	          0.04466081	          0.00999999	          0.02324426	          0.21440608	          0.01182489	          0.71365140	          0.00999999	          0.00999999	          0.17489882	          0.29909422	          0.01955190	          0.17032683	          0.10667253	          0.00999999	          0.10603715	          0.34497066	          0.12716892	          0.13480903	          0.19484082	          0.10451115	          0.00999999	          0.00999999	          0.01182489	          0.00999999	          0.71888591	
          1.67525529	         -7.20068321	          1.65876849	         -6.48410739	          2.35503317	          0.91461698	          0.00861355	        -12.56000535	         -2.13219496	         -4.32850899	        -15.12894268	          2.81230102	         42.89983226	         34.67492591	         -0.75484302	         -8.04486052	        -13.49850711	          0.33132267	          0.17342960	         -5.55704911	         -2.01434174	          9.90112620	          0.25356762	          0.00999999	          0.00999999	          0.03776845	          0.00999999	          0.01965705	          0.20181226	          0.00999999	          0.61277585	          0.00999999	          0.00999999	          0.14790727	          0.25293601	          0.01653452	          0.19027145	          0.09021011	          0.00999999	          0.16252548	          0.39678659	          0.11209510	          0.11400440	          0.29034407	          0.08838229	          0.00999999	          0.01781869	          0.00999999	          0.00999999	          0.75259590	
          1.68620467	         -7.16409415	          1.73685453	         -6.43958359	          2.37362663	          0.91384951	          0.00782502	        -12.12896991	         -2.49435251	         -4.72701081	        -17.78061342	          1.01808344	         44.75712641	         34.64226114	         -0.61501174	         -7.96017381	        -15.55484652	          0.16032281	          0.12842498	         -5.30822355	         -2.41839082	         10.16308147	          0.29457447	          0.00999999	          0.00999999	          0.03193977	          0.03314134	          0.05315444	          0.19703338	          0.00999999	          0.51820820	          0.00999999	          0.00999999	          0.12508123	          0.21390124	          0.01398280	          0.18520562	          0.07628829	          0.00999999	          0.21173616	          0.38713650	          0.10197829	          0.09641048	          0.30726280	          0.07474255	          0.00999999	          0.09552669	          0.00999999	          0.00999999	          0.78479377	
          1.69715405	         -7.11035277	          1.82551163	         -6.36946121	          2.39199300	          0.91363940	          0.00693001	        -11.35798940	         -2.91086078	         -5.14167633	        -20.98827759	         -0.88931897	         45.96408768	         34.58101606	         -0.44732434	         -7.88393018	        -17.62185823	          0.35989641	          0.08822846	         -5.09406261	         -2.82240944	         10.36744982	          0.30905768	          0.00999999	          0.00999999	          0.02701061	          0.10040901	          0.05436556	          0.16662588	          0.00999999	          0.43823486	          0.00999999	          0.00999999	          0.10577786	          0.18089058	          0.01182489	          0.18346405	          0.06451497	          0.00999999	          0.25002682	          0.39173061	          0.09418761	          0.08153178	          0.27042849	          0.06320778	          0.00999999	          0.17992691	          0.00999999	          0.00999999	          0.74497298	
          1.70810343	         -7.04571351	          1.91808479	         -6.27546590	          2.41005303	          0.91409386	          0.00595919	        -10.23232572	         -3.38149930	         -5.58029231	        -24.74690303	         -2.86838689	         46.14328541	         34.40026771	         -0.24094011	         -7.78107496	        -19.53090408	          1.01052442	          0.08562350	         -4.91530277	         -3.21924355	         10.51371630	          0.31993456	          0.00999999	          0.00999999	          0.02284216	          0.18196403	          0.07389661	          0.14091106	          0.00999999	          0.37060354	          0.00999999	          0.00999999	          0.08945352	          0.15297434	          0.00999999	          0.16167744	          0.05455859	          0.00999999	          0.27604524	          0.36179103	          0.08663499	          0.06894925	          0.22869416	          0.05345314	          0.00999999	          0.28674617	          0.00999999	          0.00999999	          0.64828137	
